PathFileType	4	(X/Y/Z)	D:\TRACE\v60_Jaco2_6-2-23\BothDRS_Motion3_1-v60.trc
DataRate	CameraRate	NumFrames	NumMarkers	Units	OrigDataRate	OrigDataStartFrame	OrigNumFrames
100.00	100.00	      35	9	mm	100.00	876	      7000
Frame#	Time	front left toe			Front right toe			aft left toe			aft right toe			Arm			FL body			FR body			AL Body			AR Body			
		X1	Y1	Z1	X2	Y2	Z2	X3	Y3	Z3	X4	Y4	Z4	X5	Y5	Z5	X6	Y6	Z6	X7	Y7	Z7	X8	Y8	Z8	X9	Y9	Z9	

876	8.750	-201.83040	2.82225	-242.56726	176.36392	-2.14108	-247.59523	-206.10139	35.07594	371.43179	164.35345	38.65823	379.81442	-0.05515	1136.44604	-422.63373	-86.24844	496.87515	-416.98633	72.01019	501.39374	-414.83047	-95.32470	582.52496	523.29492	57.05995	577.19000	526.05249	
877	8.760	-201.94890	0.47293	-244.23453	176.47255	-2.33208	-247.65955	-205.94868	35.28162	371.30362	165.26685	37.34693	377.62149	0.33259	1136.22339	-424.28784	-86.08802	496.95987	-417.62689	72.11651	501.33478	-415.08286	-95.47668	582.75122	522.94159	56.39747	577.50073	525.56665	
878	8.770	-202.69708	1.00248	-245.39384	176.48965	-2.41172	-247.75543	-205.87918	35.40919	371.40158	166.14780	35.53226	378.95718	0.51678	1136.03687	-426.37012	-85.74152	497.09186	-418.10175	72.57957	501.30945	-415.32123	-95.68559	583.71069	522.58014	56.36309	578.68451	525.31293	
879	8.780	-202.67975	-0.28328	-244.67365	176.46477	-2.16117	-248.14204	-205.78062	36.44622	371.12585	166.64232	36.96144	377.67953	0.86453	1135.89648	-428.17807	-85.11366	497.06470	-418.32611	73.27870	501.24866	-415.35626	-96.22777	585.29364	522.02179	55.54657	580.51385	525.04590	
880	8.790	-202.45010	-1.82648	-243.84706	176.67595	1.07125	-247.22125	-204.71370	38.87803	371.47729	166.43346	36.20831	379.26495	1.63748	1136.07153	-430.32068	-84.70197	497.48746	-418.67142	73.47423	501.74564	-415.73804	-96.68997	586.37335	521.43097	55.79039	581.72125	524.76398	
881	8.800	-202.28554	-2.01346	-244.68130	173.51862	4.44497	-244.00737	-201.92154	42.19165	374.63022	166.24683	36.12972	378.07034	1.86434	1136.39551	-432.98813	-84.14082	497.78680	-418.98694	74.20175	502.47260	-416.09708	-96.86479	586.93579	521.19958	55.09216	582.50348	524.47925	
882	8.810	-202.27640	-1.42705	-245.12624	170.59093	9.88619	-240.39557	-198.70232	50.28184	375.66031	166.44135	36.39594	378.05801	2.03035	1136.48425	-435.76041	-83.38744	498.38931	-419.47772	75.25443	502.88959	-416.48346	-97.09670	587.39893	520.84912	54.36954	583.05676	524.13800	
883	8.820	-201.99593	-1.50101	-244.91724	169.62938	20.13530	-239.87819	-195.66597	59.27287	376.33273	166.33504	36.44693	378.07474	2.18109	1136.32678	-437.89075	-83.01054	498.52127	-419.71152	75.12611	502.98276	-416.42450	-97.08897	587.96393	520.59265	55.23820	583.64966	523.94104	
884	8.830	-201.84181	-2.14887	-244.60045	169.96019	31.46870	-239.58400	-194.41095	71.56967	375.11200	166.41815	36.44656	378.08350	2.43076	1136.08105	-439.49496	-82.61895	498.02136	-419.70236	75.40823	502.64447	-416.50562	-97.04698	588.50232	520.35889	55.23469	583.96466	523.81189	
885	8.840	-201.75160	-2.27194	-244.49673	171.90961	43.52245	-240.55872	-195.46010	83.85472	373.80991	166.66177	36.45937	378.09219	2.90756	1135.64282	-440.54153	-82.50658	497.48837	-419.82736	76.36763	501.97992	-416.64432	-96.63802	588.59808	520.22968	55.48024	584.20343	523.63202	
886	8.850	-201.66748	-2.43667	-244.72594	174.29066	55.79475	-241.17210	-197.98203	96.98174	372.52359	166.89365	36.23689	377.93936	3.31812	1135.05505	-441.35739	-82.54721	497.03494	-419.96313	76.57989	501.38724	-416.63467	-96.23267	588.41748	520.12793	55.61921	584.12024	523.53485	
887	8.860	-201.53943	-2.69374	-244.68529	176.65091	67.95683	-242.09323	-200.13092	109.59025	371.66739	167.35674	36.23707	377.85907	3.52489	1134.56799	-442.23026	-82.51714	496.68015	-420.06378	76.49209	501.00977	-416.75656	-95.46948	588.04309	520.28455	56.40517	583.63062	523.40509	
888	8.870	-201.35242	-2.88300	-244.72163	178.20451	79.59302	-242.69655	-201.80864	122.10120	370.98532	167.87296	36.27630	377.97867	3.71201	1134.24109	-443.26038	-82.40864	496.38998	-419.82010	76.52246	500.69992	-416.87354	-94.67860	587.52612	520.42242	57.22294	583.18390	523.44354	
889	8.880	-201.16373	-2.90461	-244.65660	179.74454	90.90079	-243.50813	-201.83197	133.23906	370.25562	168.26199	36.22978	378.10281	3.78974	1133.98450	-444.27063	-82.14131	495.97391	-419.45309	76.56958	500.40601	-416.84885	-94.13708	587.21442	520.45947	58.01011	582.83997	523.45514	
890	8.890	-201.02609	-2.93523	-244.59683	180.66307	101.20105	-243.82944	-201.57767	144.37366	370.17825	168.75591	36.21107	378.22406	3.97852	1133.65833	-445.51761	-81.86897	495.79376	-419.12650	76.72893	500.21225	-416.73526	-93.05084	587.20001	520.67096	59.03632	582.82977	523.67639	
891	8.900	-200.99721	-2.99353	-244.54057	180.95125	110.78510	-244.33133	-200.62567	153.80911	369.98349	168.73175	36.12943	378.19284	4.11066	1133.21521	-446.77896	-81.51040	495.47491	-418.63379	77.05470	499.75958	-416.42969	-92.21591	587.20270	521.02252	59.71032	582.72491	523.87164	
892	8.910	-200.91377	-3.06077	-244.48914	182.36584	118.42151	-244.50697	-199.10161	161.73459	369.91629	168.89465	36.02171	378.19437	4.99285	1132.71533	-447.64590	-81.47545	495.32779	-418.41876	76.60656	499.58643	-415.88052	-91.45966	587.19635	521.36713	60.18928	582.72729	524.01447	
893	8.920	-200.84976	-3.08950	-244.41875	183.43053	122.83334	-243.70628	-198.50703	164.82593	371.01660	168.93781	35.98185	378.18311	5.41544	1132.27344	-448.99826	-81.52264	495.05615	-418.07144	77.23131	499.28735	-415.79471	-90.38146	587.61591	521.80933	61.17637	582.90515	524.32727	
894	8.930	-200.58963	-2.98027	-243.87860	184.30014	123.93546	-243.13121	-198.15968	166.23671	372.00964	169.08501	35.90486	378.09641	6.14022	1131.99426	-450.13144	-81.45054	494.93188	-417.31299	77.33791	499.18863	-415.45078	-89.36667	588.05200	522.26581	62.44191	583.24933	524.76605	
895	8.940	-200.44048	-2.97344	-243.98016	186.27917	122.45490	-241.08916	-198.04486	164.96428	373.36261	169.14548	35.80647	378.02991	6.80322	1131.72314	-451.06531	-81.34712	494.95599	-416.77258	77.36044	499.06839	-415.23071	-87.93911	588.33795	522.91034	63.29067	583.50891	525.07300	
896	8.950	-200.30321	-2.88676	-243.93073	187.16055	118.20867	-239.75067	-197.61630	162.40172	374.75555	169.18829	35.77130	378.04807	7.32535	1131.39587	-452.19839	-81.36318	495.13455	-416.50803	77.43366	499.07715	-414.99673	-86.91255	588.63007	523.25110	64.45837	583.72778	525.32111	
897	8.960	-200.21593	-2.75125	-244.05481	187.87138	112.79073	-238.56760	-196.93909	158.03154	376.05240	169.38666	35.85835	378.06549	7.50318	1131.33691	-453.19073	-81.41924	495.17792	-416.18494	77.74731	498.95700	-414.37308	-85.96037	588.97418	523.92035	65.58799	583.88605	525.74036	
898	8.970	-200.13533	-2.76643	-243.98230	188.40555	106.07911	-237.83289	-195.05269	151.76302	377.93576	169.36145	35.59626	377.96927	7.86579	1131.19104	-454.15033	-80.88589	495.04291	-415.18912	78.10077	498.81491	-413.92502	-84.49926	588.93628	524.31744	66.75700	583.94257	526.24072	
899	8.980	-200.03668	-2.68424	-243.87453	189.10626	98.92105	-236.99568	-193.95880	144.35291	380.07129	169.51842	35.44382	377.93954	8.33052	1131.01050	-454.93909	-80.72820	494.91586	-414.74762	78.40419	498.63681	-413.47858	-83.81120	589.34027	524.87146	67.69734	584.05640	526.55841	
900	8.990	-199.96515	-2.64829	-243.85034	190.03743	90.60125	-236.43332	-192.75140	135.51765	382.26044	169.51392	35.14433	377.87146	9.35311	1130.93079	-455.56433	-80.40502	494.89841	-414.27927	77.88489	498.49326	-413.04099	-82.38872	589.20685	525.48645	69.23864	584.00824	526.98016	
901	9.000	-199.89333	-2.58268	-243.83505	191.15028	81.21765	-236.26314	-190.55988	125.40937	383.10541	169.73990	35.14182	377.91525	10.06125	1130.68384	-456.05017	-80.23603	494.69147	-413.72446	78.04581	498.37372	-412.77252	-81.08623	589.46283	526.06140	70.14849	584.12366	527.35297	
902	9.010	-199.85358	-2.61715	-243.64499	192.31813	71.01436	-235.78946	-189.21837	114.48994	384.62402	170.25917	35.15669	378.11301	10.68672	1130.45264	-456.92493	-80.06135	494.65314	-413.10400	78.29617	498.10962	-412.24451	-80.02616	589.08179	526.52014	71.87096	583.87274	527.74774	
903	9.020	-199.82800	-2.63858	-243.54410	193.34084	60.15664	-235.19736	-187.92511	102.98447	385.83908	170.58444	35.02359	378.13129	11.42890	1129.99841	-457.56207	-79.81702	494.54517	-412.59488	78.42776	497.97556	-411.86774	-78.83130	589.12964	527.03558	72.16154	583.78461	528.04694	
904	9.030	-199.70982	-2.71166	-243.42267	194.20386	49.11976	-233.97597	-185.80875	91.65983	386.61572	171.07222	34.92776	378.19189	12.15198	1129.82947	-458.50641	-79.36236	494.48459	-412.08075	78.69575	497.91476	-411.38489	-77.60894	588.79150	527.56787	74.31230	583.22156	528.61627	
905	9.040	-199.63539	-2.64947	-243.31808	195.13499	39.25275	-233.02776	-183.91782	81.35518	387.10443	171.24619	34.80344	378.17130	12.55316	1129.65442	-459.35309	-79.17717	494.31015	-411.48450	78.88442	497.88611	-411.23264	-76.22540	588.58771	528.09351	74.54266	582.97150	528.69812	
906	9.050	-199.57477	-2.57395	-243.33076	195.80075	29.73013	-232.32997	-181.66872	70.89067	387.47534	171.27386	34.78255	378.18506	13.02148	1129.49585	-460.14172	-78.72593	494.35675	-411.13754	80.11812	497.71115	-411.12189	-74.88809	588.53839	528.70795	75.60163	582.79272	529.12872	
907	9.060	-199.52287	-2.45402	-243.22820	196.21097	20.54233	-232.24712	-180.56871	61.33415	388.02701	171.29112	34.71584	378.19745	13.47211	1129.40320	-461.01221	-78.26633	494.30670	-410.58768	80.55389	497.68765	-410.89853	-73.65849	588.26294	529.00812	76.99251	582.45892	529.46252	
908	9.070	-199.51180	-2.42386	-243.20581	197.11652	12.17067	-232.40923	-179.38574	52.38612	388.53317	171.33315	34.57336	378.21136	14.14911	1129.18176	-461.82550	-77.82578	494.33173	-410.36743	80.98318	497.51834	-410.51611	-72.65186	587.62231	529.46985	78.18665	581.98224	529.74451	
909	9.080	-199.43541	-2.42080	-243.15382	198.47243	5.09472	-231.87766	-178.05057	44.38455	388.92258	171.17012	34.12327	378.08038	14.62765	1128.99036	-462.35995	-77.17870	494.19080	-409.75089	80.91434	497.46524	-409.87411	-71.16840	587.35150	529.99585	79.36967	581.57196	529.99677	
910	9.090	-199.38907	-2.44219	-243.06062	198.68744	2.26481	-233.48550	-177.40363	39.93612	388.34021	171.06055	33.77118	378.07391	15.01885	1129.00854	-463.02176	-76.52934	494.06732	-409.23688	81.24193	497.46039	-409.66119	-70.30525	587.02808	530.14813	81.39082	581.15735	530.27118	
